<svg xmlns="http://www.w3.org/2000/svg" viewBox="0 0 64 64" width="64" height="64">
  <rect width="100%" height="100%" fill="transparent"/>
  <g transform="translate(32,32)">
    <circle r="6" fill="#ffedf0" />
    <path d="M0 -2 C-6 -10 -14 -10 -16 -4 C-18 2 -12 10 -4 12 C4 14 10 8 12 2 C14 -4 6 -10 0 -2 Z" fill="#fb7185" transform="rotate(0)"/>
    <path d="M0 -2 C-6 -10 -14 -10 -16 -4 C-18 2 -12 10 -4 12 C4 14 10 8 12 2 C14 -4 6 -10 0 -2 Z" fill="#fb7185" transform="rotate(72)"/>
    <path d="M0 -2 C-6 -10 -14 -10 -16 -4 C-18 2 -12 10 -4 12 C4 14 10 8 12 2 C14 -4 6 -10 0 -2 Z" fill="#fb7185" transform="rotate(144)"/>
    <path d="M0 -2 C-6 -10 -14 -10 -16 -4 C-18 2 -12 10 -4 12 C4 14 10 8 12 2 C14 -4 6 -10 0 -2 Z" fill="#fb7185" transform="rotate(216)"/>
    <path d="M0 -2 C-6 -10 -14 -10 -16 -4 C-18 2 -12 10 -4 12 C4 14 10 8 12 2 C14 -4 6 -10 0 -2 Z" fill="#fb7185" transform="rotate(288)"/>
    <circle r="4" fill="#fff5f8" />
  </g>
</svg>